<svg width="110" height="21" viewBox="0 0 110 21" fill="none" xmlns="http://www.w3.org/2000/svg">
<path d="M105.253 15.5561L101 19.6807H0.5V8.92359L9.00052 0.680664H109.5V11.4378L105.253 15.5561Z" stroke="#777777" stroke-miterlimit="10"/>
<path d="M36.7894 9.65766V9.09366H38.1454C38.4254 9.09366 38.6774 9.04566 38.9014 8.94966C39.1254 8.85366 39.3014 8.71366 39.4294 8.52966C39.5574 8.34566 39.6214 8.12166 39.6214 7.85766C39.6214 7.45766 39.4814 7.14966 39.2014 6.93366C38.9214 6.70966 38.5694 6.59766 38.1454 6.59766H37.0054V13.1977H38.2654C38.6254 13.1977 38.9414 13.1337 39.2134 13.0057C39.4934 12.8777 39.7094 12.6937 39.8614 12.4537C40.0214 12.2137 40.1014 11.9217 40.1014 11.5777C40.1014 11.3217 40.0574 11.0937 39.9694 10.8937C39.8814 10.6937 39.7534 10.5257 39.5854 10.3897C39.4254 10.2537 39.2334 10.1537 39.0094 10.0897C38.7854 10.0177 38.5374 9.98166 38.2654 9.98166H36.7894V9.41766H38.2654C38.6734 9.41766 39.0494 9.46166 39.3934 9.54966C39.7374 9.63766 40.0374 9.77366 40.2934 9.95766C40.5574 10.1337 40.7614 10.3617 40.9054 10.6417C41.0494 10.9217 41.1214 11.2537 41.1214 11.6377C41.1214 12.1897 40.9934 12.6497 40.7374 13.0177C40.4894 13.3777 40.1494 13.6497 39.7174 13.8337C39.2934 14.0097 38.8094 14.0977 38.2654 14.0977H35.9854V5.69766H38.1454C38.6494 5.69766 39.0854 5.77366 39.4534 5.92566C39.8294 6.07766 40.1214 6.30966 40.3294 6.62166C40.5374 6.92566 40.6414 7.31766 40.6414 7.79766C40.6414 8.18966 40.5374 8.52566 40.3294 8.80566C40.1214 9.08566 39.8294 9.29766 39.4534 9.44166C39.0854 9.58566 38.6494 9.65766 38.1454 9.65766H36.7894ZM42.1368 11.3377C42.1368 10.7777 42.2608 10.2817 42.5088 9.84966C42.7648 9.41766 43.1088 9.07766 43.5408 8.82966C43.9728 8.58166 44.4568 8.45766 44.9928 8.45766C45.5368 8.45766 46.0208 8.58166 46.4448 8.82966C46.8768 9.07766 47.2168 9.41766 47.4648 9.84966C47.7208 10.2817 47.8488 10.7777 47.8488 11.3377C47.8488 11.8897 47.7208 12.3857 47.4648 12.8257C47.2168 13.2577 46.8768 13.5977 46.4448 13.8457C46.0208 14.0937 45.5368 14.2177 44.9928 14.2177C44.4568 14.2177 43.9728 14.0937 43.5408 13.8457C43.1088 13.5977 42.7648 13.2577 42.5088 12.8257C42.2608 12.3857 42.1368 11.8897 42.1368 11.3377ZM43.1088 11.3377C43.1088 11.7217 43.1888 12.0617 43.3488 12.3577C43.5168 12.6537 43.7408 12.8897 44.0208 13.0657C44.3088 13.2337 44.6328 13.3177 44.9928 13.3177C45.3528 13.3177 45.6728 13.2337 45.9528 13.0657C46.2408 12.8897 46.4648 12.6537 46.6248 12.3577C46.7928 12.0617 46.8768 11.7217 46.8768 11.3377C46.8768 10.9537 46.7928 10.6137 46.6248 10.3177C46.4648 10.0137 46.2408 9.77766 45.9528 9.60966C45.6728 9.44166 45.3528 9.35766 44.9928 9.35766C44.6328 9.35766 44.3088 9.44166 44.0208 9.60966C43.7408 9.77766 43.5168 10.0137 43.3488 10.3177C43.1888 10.6137 43.1088 10.9537 43.1088 11.3377ZM48.6876 11.3377C48.6876 10.7777 48.8116 10.2817 49.0596 9.84966C49.3156 9.41766 49.6596 9.07766 50.0916 8.82966C50.5236 8.58166 51.0076 8.45766 51.5436 8.45766C52.0876 8.45766 52.5716 8.58166 52.9956 8.82966C53.4276 9.07766 53.7676 9.41766 54.0156 9.84966C54.2716 10.2817 54.3996 10.7777 54.3996 11.3377C54.3996 11.8897 54.2716 12.3857 54.0156 12.8257C53.7676 13.2577 53.4276 13.5977 52.9956 13.8457C52.5716 14.0937 52.0876 14.2177 51.5436 14.2177C51.0076 14.2177 50.5236 14.0937 50.0916 13.8457C49.6596 13.5977 49.3156 13.2577 49.0596 12.8257C48.8116 12.3857 48.6876 11.8897 48.6876 11.3377ZM49.6596 11.3377C49.6596 11.7217 49.7396 12.0617 49.8996 12.3577C50.0676 12.6537 50.2916 12.8897 50.5716 13.0657C50.8596 13.2337 51.1836 13.3177 51.5436 13.3177C51.9036 13.3177 52.2236 13.2337 52.5036 13.0657C52.7916 12.8897 53.0156 12.6537 53.1756 12.3577C53.3436 12.0617 53.4276 11.7217 53.4276 11.3377C53.4276 10.9537 53.3436 10.6137 53.1756 10.3177C53.0156 10.0137 52.7916 9.77766 52.5036 9.60966C52.2236 9.44166 51.9036 9.35766 51.5436 9.35766C51.1836 9.35766 50.8596 9.44166 50.5716 9.60966C50.2916 9.77766 50.0676 10.0137 49.8996 10.3177C49.7396 10.6137 49.6596 10.9537 49.6596 11.3377ZM55.6584 4.73766H56.6184V14.0977H55.6584V4.73766ZM58.6584 8.57766H59.8584L57.4584 10.8577L60.0984 14.0977H58.8984L56.2584 10.8577L58.6584 8.57766ZM72.6148 11.0617L68.0788 9.05766V8.09766L74.1988 10.7377V11.2777L68.0788 13.9177V12.9577L72.6148 11.0617Z" fill="#777777"/>
</svg>
