<svg width="20" height="20" viewBox="0 0 20 20" fill="none" xmlns="http://www.w3.org/2000/svg">
<path d="M3.15789 3H16.8421C17.6796 3 18.4829 3.29748 19.0751 3.82699C19.6673 4.35651 20 5.07468 20 5.82353V14.2941C20 15.043 19.6673 15.7611 19.0751 16.2907C18.4829 16.8202 17.6796 17.1176 16.8421 17.1176H3.15789C2.32037 17.1176 1.51715 16.8202 0.924926 16.2907C0.332706 15.7611 0 15.043 0 14.2941V5.82353C0 5.07468 0.332706 4.35651 0.924926 3.82699C1.51715 3.29748 2.32037 3 3.15789 3ZM3.15789 3.94118C2.59954 3.94118 2.06406 4.1395 1.66925 4.4925C1.27444 4.84551 1.05263 5.3243 1.05263 5.82353V6.76471H18.9474V5.82353C18.9474 5.3243 18.7256 4.84551 18.3308 4.4925C17.9359 4.1395 17.4005 3.94118 16.8421 3.94118H3.15789ZM1.05263 14.2941C1.05263 14.7933 1.27444 15.2721 1.66925 15.6251C2.06406 15.9782 2.59954 16.1765 3.15789 16.1765H16.8421C17.4005 16.1765 17.9359 15.9782 18.3308 15.6251C18.7256 15.2721 18.9474 14.7933 18.9474 14.2941V9.58824H1.05263V14.2941ZM3.15789 13.3529H7.36842V14.2941H3.15789V13.3529ZM9.47368 13.3529H12.6316V14.2941H9.47368V13.3529ZM1.05263 7.70588V8.64706H18.9474V7.70588H1.05263Z" fill="#242223"/>
</svg>
