<svg width="20" height="20" viewBox="0 0 20 20" fill="none" xmlns="http://www.w3.org/2000/svg">
<path d="M0 3H20V16H0V3ZM10 6.25C10.8841 6.25 11.7319 6.59241 12.357 7.2019C12.9821 7.8114 13.3333 8.63805 13.3333 9.5C13.3333 10.362 12.9821 11.1886 12.357 11.7981C11.7319 12.4076 10.8841 12.75 10 12.75C9.11595 12.75 8.2681 12.4076 7.64298 11.7981C7.01786 11.1886 6.66667 10.362 6.66667 9.5C6.66667 8.63805 7.01786 7.8114 7.64298 7.2019C8.2681 6.59241 9.11595 6.25 10 6.25ZM3.33333 4.08333C3.33333 4.65797 3.19453 5.302 2.77778 5.70833C2.36103 6.11466 1.70048 6.25 1.11111 6.25V12.75C1.70048 12.75 2.36103 12.8853 2.77778 13.2917C3.19453 13.698 3.33333 14.342 3.33333 14.9167H16.6667C16.6667 14.342 16.8055 13.698 17.2222 13.2917C17.639 12.8853 18.2995 12.75 18.8889 12.75V6.25C18.2995 6.25 17.639 6.11466 17.2222 5.70833C16.8055 5.302 16.6667 4.65797 16.6667 4.08333H3.33333Z" fill="#242223"/>
</svg>
