<svg width="20" height="20" viewBox="0 0 20 20" fill="none" xmlns="http://www.w3.org/2000/svg">
<path d="M19.7985 4.21252C19.9311 4.07584 20.0033 3.89506 19.9999 3.70827C19.9965 3.52148 19.9177 3.34326 19.7801 3.21115C19.6426 3.07905 19.457 3.00338 19.2625 3.00009C19.0681 2.99679 18.8798 3.06613 18.7375 3.19349L11.2305 10.4036C11.1567 10.4696 11.0976 10.5492 11.0566 10.6377C11.0155 10.7261 10.9935 10.8216 10.9917 10.9184C10.9899 11.0152 11.0085 11.1114 11.0462 11.2012C11.084 11.291 11.1402 11.3725 11.2114 11.441C11.2827 11.5094 11.3676 11.5634 11.4611 11.5997C11.5546 11.6359 11.6547 11.6538 11.7555 11.652C11.8563 11.6503 11.9557 11.6291 12.0478 11.5897C12.1399 11.5503 12.2228 11.4935 12.2915 11.4227L19.7985 4.21252ZM19.7805 5.49975C19.8156 5.66222 19.7805 5.82763 19.7805 5.99971V12.5475C19.7805 13.2405 19.8351 13.9466 19.26 14.499C18.6896 15.0468 18.5214 14.9989 17.6984 14.9989H2.55239C1.88202 14.9989 0.994563 14.9542 0.520541 14.499C0.0465186 14.0437 0 13.6429 0 12.9991V5.91412C0 5.26395 0.0418752 4.95958 0.520541 4.49984C0.999206 4.0401 1.40523 3.99988 2.08216 3.99988H16.6573L15.6162 4.9998H2.08216C1.50162 4.9998 1.04108 5.44212 1.04108 5.99971V12.9991C1.04108 13.5567 1.50162 13.999 2.08216 13.999H17.6984C18.2789 13.999 18.7375 13.5567 18.7375 12.9991L18.7395 6.49966L19.7805 5.49975ZM3.12324 6.99962H5.35505C6.06572 6.99962 6.06572 7.99953 5.35505 7.99953H3.12324C2.56373 7.99953 2.56373 6.99962 3.12324 6.99962ZM3.27289 9.99935H8.47829C9.18896 9.99935 9.18896 10.9993 8.47829 10.9993H3.27289C2.56222 10.9993 2.56222 9.99935 3.27289 9.99935Z" fill="#242223"/>
</svg>
