<svg width="22" height="22" viewBox="0 0 22 22" fill="none" xmlns="http://www.w3.org/2000/svg">
<g clip-path="url(#clip0_3_77)">
<path d="M20.0844 12.5005C19.5499 17.3985 15.3303 21.1879 10.2611 21.0393C5.37297 20.896 1.26469 16.9139 0.973999 12.0338C0.663888 6.82777 4.51641 2.44906 9.51526 1.91302" stroke="black" stroke-width="1.5" stroke-miterlimit="10" stroke-linecap="round"/>
<path d="M13.6809 1.367C17.2332 1.92994 20.0698 4.76576 20.6329 8.31699H13.6809V1.367ZM13.3109 0C12.7977 5.25936e-05 12.3657 0.413403 12.3657 0.938673V8.69459C12.3657 9.21222 12.7854 9.63182 13.3032 9.63182H21.0613C21.6217 9.63182 22.0547 9.14058 21.9947 8.58353C21.5089 4.07426 17.9248 0.491242 13.4142 0.00556615C13.3795 0.00182324 13.3451 0 13.3109 0Z" fill="black"/>
</g>
<defs>
<clipPath id="clip0_3_77">
<rect width="22" height="22" fill="white"/>
</clipPath>
</defs>
</svg>
