<svg width="22" height="22" viewBox="0 0 22 22" fill="none" xmlns="http://www.w3.org/2000/svg">
<g clip-path="url(#clip0_3_940)">
<path d="M16.2831 3.08288C16.3829 3.08288 16.4641 3.16405 16.4641 3.26385V18.4641H1.26382C1.16407 18.4641 1.08288 18.3829 1.08288 18.2831V3.26385C1.08288 3.16405 1.16407 3.08288 1.26382 3.08288H16.2831ZM16.2831 2H1.26382C0.565828 2 0 2.56585 0 3.26385V18.2831C0 18.9811 0.565828 19.547 1.26382 19.547H17.5469V3.26385C17.5469 2.56585 16.9811 2 16.2831 2Z" fill="black"/>
<path d="M6.8525 5.56237V8.9848H3.43005V5.56237H6.8525ZM7.93538 4.47949H2.34717V10.0677H7.93538V4.47949Z" fill="black"/>
<path d="M14.0947 5.56237V8.9848H10.6722V5.56237H14.0947ZM15.1776 4.47949H9.58936V10.0677H15.1776V4.47949Z" fill="black"/>
<path d="M6.8525 12.8773V16.2998H3.43005V12.8773H6.8525ZM7.93538 11.7944H2.34717V17.3827H7.93538V11.7944Z" fill="black"/>
<path d="M14.0947 12.8773V16.2998H10.6722V12.8773H14.0947ZM15.1776 11.7944H9.58936V17.3827H15.1776V11.7944Z" fill="black"/>
<path d="M20.7364 9.87573C20.8362 9.87573 20.9174 9.95689 20.9174 10.0567V18.2831C20.9174 18.3829 20.8362 18.4641 20.7364 18.4641H17.618V9.87573H20.7364ZM20.7364 8.79285H16.5352V19.5469H20.7364C21.4344 19.5469 22.0002 18.9811 22.0002 18.2831V10.0567C22.0002 9.35865 21.4344 8.79285 20.7364 8.79285Z" fill="black"/>
</g>
<defs>
<clipPath id="clip0_3_940">
<rect width="22" height="22" fill="white"/>
</clipPath>
</defs>
</svg>
