<svg width="20" height="20" viewBox="0 0 20 20" fill="none" xmlns="http://www.w3.org/2000/svg">
<g clip-path="url(#clip0_3_1080)">
<path d="M9.99879 0C15.5211 0 19.9976 4.47645 19.9976 9.99878C19.9976 15.5211 15.5211 19.9976 9.99879 19.9976C8.38121 19.9997 6.78746 19.6078 5.35536 18.8557L1.06588 19.9726C0.922552 20.0099 0.771959 20.0091 0.629023 19.9703C0.486087 19.9315 0.355772 19.856 0.250993 19.7514C0.146215 19.6467 0.0706098 19.5164 0.0316718 19.3735C-0.00726607 19.2306 -0.00818507 19.0801 0.0290059 18.9367L1.14487 14.6482C0.390762 13.2146 -0.00221938 11.6186 9.42791e-06 9.99878C9.42792e-06 4.47645 4.47646 0 9.99879 0ZM11.2506 10.9987H6.74919L6.6472 11.0057C6.46771 11.0304 6.30323 11.1192 6.18417 11.2558C6.0651 11.3923 5.99951 11.5674 5.99951 11.7486C5.99951 11.9297 6.0651 12.1048 6.18417 12.2414C6.30323 12.3779 6.46771 12.4668 6.6472 12.4915L6.74919 12.4985H11.2506L11.3516 12.4915C11.5311 12.4668 11.6956 12.3779 11.8147 12.2414C11.9337 12.1048 11.9993 11.9297 11.9993 11.7486C11.9993 11.5674 11.9337 11.3923 11.8147 11.2558C11.6956 11.1192 11.5311 11.0304 11.3516 11.0057L11.2506 10.9987ZM13.2484 7.49908H6.74919L6.6472 7.50608C6.46771 7.53078 6.30323 7.61962 6.18417 7.75619C6.0651 7.89276 5.99951 8.06781 5.99951 8.24899C5.99951 8.43017 6.0651 8.60523 6.18417 8.7418C6.30323 8.87836 6.46771 8.96721 6.6472 8.9919L6.74919 8.9989H13.2484L13.3504 8.9919C13.5299 8.96721 13.6944 8.87836 13.8134 8.7418C13.9325 8.60523 13.9981 8.43017 13.9981 8.24899C13.9981 8.06781 13.9325 7.89276 13.8134 7.75619C13.6944 7.61962 13.5299 7.53078 13.3504 7.50608L13.2484 7.49908Z" fill="#212121"/>
<path d="M19.6107 3.26206C19.6107 4.80627 18.3588 6.05811 16.8146 6.05811C15.2704 6.05811 14.0186 4.80627 14.0186 3.26206C14.0186 1.71784 15.2704 0.466003 16.8146 0.466003C18.3588 0.466003 19.6107 1.71784 19.6107 3.26206Z" fill="white"/>
<path d="M18.492 3.26203C18.492 4.18856 17.7409 4.93966 16.8144 4.93966C15.8878 4.93966 15.1367 4.18856 15.1367 3.26203C15.1367 2.3355 15.8878 1.5844 16.8144 1.5844C17.7409 1.5844 18.492 2.3355 18.492 3.26203Z" fill="#D30314"/>
</g>
<defs>
<clipPath id="clip0_3_1080">
<rect width="20" height="20" fill="white"/>
</clipPath>
</defs>
</svg>
