<svg width="130" height="131" viewBox="0 0 130 131" fill="none" xmlns="http://www.w3.org/2000/svg">
<rect x="0.5" y="0.797852" width="129" height="129" rx="64.5" stroke="#8D8D8D"/>
<path d="M110 65.2978C110 75.4057 106.597 85.2192 100.339 93.1571C94.0816 101.095 85.3336 106.695 75.5051 109.054C65.6765 111.414 55.3397 110.396 46.1604 106.164C36.981 101.933 29.4936 94.7336 24.9048 85.7274C20.3159 76.7213 18.8928 66.4324 20.8647 56.5188C22.8367 46.6052 28.0888 37.6441 35.7749 31.0796C43.4609 24.5151 53.1333 20.7294 63.2333 20.3326C73.3334 19.9357 83.2729 22.9509 91.4503 28.8921" stroke="url(#paint0_linear_3_343)" stroke-width="16" stroke-linecap="round"/>
<path d="M55.0625 68.5986C55.0625 69.6846 54.8047 70.5947 54.2891 71.3291C53.7812 72.0635 53.0781 72.6143 52.1797 72.9814C51.2891 73.3486 50.2734 73.5322 49.1328 73.5322C48 73.5322 46.9805 73.3486 46.0742 72.9814C45.1758 72.6143 44.4648 72.0635 43.9414 71.3291C43.418 70.5947 43.1562 69.6846 43.1562 68.5986C43.1562 67.8564 43.3047 67.1924 43.6016 66.6064C43.9062 66.0127 44.3281 65.5088 44.8672 65.0947C45.4062 64.6807 46.0352 64.3643 46.7539 64.1455C47.4805 63.9268 48.2656 63.8174 49.1094 63.8174C50.25 63.8174 51.2695 64.0127 52.168 64.4033C53.0664 64.7861 53.7734 65.333 54.2891 66.0439C54.8047 66.7549 55.0625 67.6064 55.0625 68.5986ZM51.0898 68.2822C51.0898 67.8135 51.0078 67.4189 50.8438 67.0986C50.6797 66.7705 50.4492 66.5205 50.1523 66.3486C49.8555 66.1768 49.5078 66.0908 49.1094 66.0908C48.7188 66.0908 48.3711 66.1768 48.0664 66.3486C47.7695 66.5205 47.5352 66.7705 47.3633 67.0986C47.1992 67.4189 47.1172 67.8135 47.1172 68.2822C47.1172 68.7354 47.2031 69.1299 47.375 69.4658C47.5469 69.7939 47.7812 70.0479 48.0781 70.2275C48.3828 70.3994 48.7344 70.4854 49.1328 70.4854C49.5312 70.4854 49.875 70.3994 50.1641 70.2275C50.4609 70.0479 50.6875 69.7939 50.8438 69.4658C51.0078 69.1299 51.0898 68.7354 51.0898 68.2822ZM54.7109 60.7939C54.7109 61.6846 54.4727 62.4658 53.9961 63.1377C53.5273 63.8018 52.8711 64.3213 52.0273 64.6963C51.1914 65.0635 50.2266 65.2471 49.1328 65.2471C48.0469 65.2471 47.0781 65.0635 46.2266 64.6963C45.3828 64.3213 44.7188 63.8018 44.2344 63.1377C43.7578 62.4658 43.5195 61.6846 43.5195 60.7939C43.5195 59.7471 43.7578 58.8682 44.2344 58.1572C44.7188 57.4463 45.3828 56.9072 46.2266 56.54C47.0703 56.1729 48.0312 55.9893 49.1094 55.9893C50.2031 55.9893 51.1719 56.1729 52.0156 56.54C52.8594 56.9072 53.5195 57.4463 53.9961 58.1572C54.4727 58.8682 54.7109 59.7471 54.7109 60.7939ZM50.7617 61.0049C50.7617 60.5986 50.6992 60.251 50.5742 59.9619C50.4492 59.665 50.2656 59.4385 50.0234 59.2822C49.7812 59.1182 49.4766 59.0361 49.1094 59.0361C48.7578 59.0361 48.4609 59.1143 48.2188 59.2705C47.9766 59.4268 47.793 59.6533 47.668 59.9502C47.543 60.2393 47.4805 60.5908 47.4805 61.0049C47.4805 61.4111 47.543 61.7666 47.668 62.0713C47.793 62.376 47.9766 62.6143 48.2188 62.7861C48.4688 62.958 48.7734 63.0439 49.1328 63.0439C49.5 63.0439 49.8008 62.958 50.0352 62.7861C50.2773 62.6143 50.457 62.376 50.5742 62.0713C50.6992 61.7666 50.7617 61.4111 50.7617 61.0049ZM60.5117 65.6924L57.3711 64.9541L58.4023 56.2354H68.375V59.3057H61.625L61.2383 62.6924C61.4258 62.583 61.7422 62.4541 62.1875 62.3057C62.6406 62.1494 63.1406 62.0713 63.6875 62.0713C64.5312 62.0713 65.2773 62.2002 65.9258 62.458C66.582 62.708 67.1367 63.0791 67.5898 63.5713C68.043 64.0557 68.3828 64.6533 68.6094 65.3643C68.8438 66.0752 68.9609 66.8877 68.9609 67.8018C68.9609 68.5361 68.8398 69.2471 68.5977 69.9346C68.3633 70.6143 68 71.2275 67.5078 71.7744C67.0234 72.3135 66.4102 72.7432 65.668 73.0635C64.9258 73.376 64.0469 73.5322 63.0312 73.5322C62.2734 73.5322 61.5352 73.415 60.8164 73.1807C60.0977 72.9463 59.4492 72.6104 58.8711 72.1729C58.3008 71.7275 57.8477 71.1924 57.5117 70.5674C57.1836 69.9346 57.0234 69.2275 57.0312 68.4463H61.0039C61.0273 68.8604 61.125 69.2197 61.2969 69.5244C61.4688 69.8291 61.6992 70.0674 61.9883 70.2393C62.2852 70.4033 62.625 70.4854 63.0078 70.4854C63.3984 70.4854 63.7227 70.4072 63.9805 70.251C64.2383 70.0947 64.4414 69.8799 64.5898 69.6064C64.7383 69.333 64.8438 69.0205 64.9062 68.6689C64.9688 68.3096 65 67.9307 65 67.5322C65 67.1104 64.9531 66.7314 64.8594 66.3955C64.7734 66.0596 64.6328 65.7744 64.4375 65.54C64.2422 65.2979 63.9883 65.1143 63.6758 64.9893C63.3711 64.8643 63.0039 64.8018 62.5742 64.8018C62.0039 64.8018 61.5547 64.8994 61.2266 65.0947C60.8984 65.29 60.6602 65.4893 60.5117 65.6924ZM71.0703 60.4189V59.5166C71.0703 58.8682 71.2109 58.2783 71.4922 57.7471C71.7734 57.2158 72.1953 56.79 72.7578 56.4697C73.3203 56.1494 74.0195 55.9893 74.8555 55.9893C75.7148 55.9893 76.4258 56.1494 76.9883 56.4697C77.5508 56.79 77.9688 57.2158 78.2422 57.7471C78.5234 58.2783 78.6641 58.8682 78.6641 59.5166V60.4189C78.6641 61.0518 78.5234 61.6338 78.2422 62.165C77.9688 62.6963 77.5508 63.1221 76.9883 63.4424C76.4336 63.7627 75.7344 63.9229 74.8906 63.9229C74.0391 63.9229 73.332 63.7627 72.7695 63.4424C72.207 63.1221 71.7812 62.6963 71.4922 62.165C71.2109 61.6338 71.0703 61.0518 71.0703 60.4189ZM73.6016 59.5166V60.4189C73.6016 60.6533 73.6484 60.876 73.7422 61.0869C73.8359 61.2979 73.9766 61.4697 74.1641 61.6025C74.3594 61.7275 74.5977 61.79 74.8789 61.79C75.168 61.79 75.4023 61.7275 75.582 61.6025C75.7617 61.4697 75.8945 61.2979 75.9805 61.0869C76.0742 60.876 76.1211 60.6533 76.1211 60.4189V59.5166C76.1211 59.2666 76.0742 59.0361 75.9805 58.8252C75.8945 58.6143 75.7578 58.4463 75.5703 58.3213C75.3828 58.1885 75.1445 58.1221 74.8555 58.1221C74.582 58.1221 74.3516 58.1885 74.1641 58.3213C73.9766 58.4463 73.8359 58.6143 73.7422 58.8252C73.6484 59.0361 73.6016 59.2666 73.6016 59.5166ZM79.168 70.0166V69.1143C79.168 68.4736 79.3086 67.8877 79.5898 67.3564C79.8789 66.8252 80.3047 66.3994 80.8672 66.0791C81.4375 65.7588 82.1406 65.5986 82.9766 65.5986C83.8359 65.5986 84.543 65.7588 85.0977 66.0791C85.6602 66.3994 86.0781 66.8252 86.3516 67.3564C86.6328 67.8877 86.7734 68.4736 86.7734 69.1143V70.0166C86.7734 70.6572 86.6328 71.2432 86.3516 71.7744C86.0781 72.3057 85.6641 72.7314 85.1094 73.0518C84.5547 73.3721 83.8555 73.5322 83.0117 73.5322C82.1602 73.5322 81.4492 73.3721 80.8789 73.0518C80.3086 72.7314 79.8789 72.3057 79.5898 71.7744C79.3086 71.2432 79.168 70.6572 79.168 70.0166ZM81.7109 69.1143V70.0166C81.7109 70.2588 81.7695 70.4854 81.8867 70.6963C82.0039 70.9072 82.1602 71.0791 82.3555 71.2119C82.5508 71.3369 82.7656 71.3994 83 71.3994C83.3594 71.3994 83.625 71.3369 83.7969 71.2119C83.9766 71.0791 84.0938 70.9072 84.1484 70.6963C84.2109 70.4854 84.2422 70.2588 84.2422 70.0166V69.1143C84.2422 68.8721 84.1953 68.6455 84.1016 68.4346C84.0078 68.2236 83.8672 68.0557 83.6797 67.9307C83.4922 67.7979 83.2578 67.7314 82.9766 67.7314C82.6953 67.7314 82.4609 67.7979 82.2734 67.9307C82.0859 68.0557 81.9453 68.2236 81.8516 68.4346C81.7578 68.6455 81.7109 68.8721 81.7109 69.1143ZM83.9609 58.6846L75.6289 72.0205L73.7891 71.0947L82.1211 57.7588L83.9609 58.6846Z" fill="#242223"/>
<defs>
<linearGradient id="paint0_linear_3_343" x1="110" y1="70.4459" x2="90.2667" y2="27.9891" gradientUnits="userSpaceOnUse">
<stop stop-color="#155340"/>
<stop offset="1" stop-color="#155340" stop-opacity="0.25"/>
</linearGradient>
</defs>
</svg>
