<svg width="160" height="160" viewBox="0 0 160 160" fill="none" xmlns="http://www.w3.org/2000/svg">
<path d="M3.94935 104.825C0.0312649 92.8226 -0.990207 80.0629 0.968464 67.5897C2.92713 55.1165 7.81032 43.284 15.2187 33.0598C22.6271 22.8356 32.3503 14.5102 43.5931 8.76421C54.836 3.01826 67.2792 0.0150111 79.9052 5.6117e-05L80 80L3.94935 104.825Z" fill="#D9D9D9"/>
<path d="M80 0C94.7636 1.76055e-07 109.239 4.0854 121.825 11.8039C134.41 19.5225 144.614 30.5731 151.307 43.7324C158 56.8918 160.921 71.6465 159.747 86.3634C158.572 101.08 153.348 115.185 144.653 127.117C135.958 139.048 124.131 148.341 110.481 153.966C96.8307 159.591 81.8903 161.329 67.3135 158.988C52.7367 156.646 39.0921 150.317 27.8901 140.701C16.6881 131.084 8.36565 118.555 3.84415 104.501L80 80V0Z" fill="#155340"/>
</svg>
