<svg width="20" height="20" viewBox="0 0 20 20" fill="none" xmlns="http://www.w3.org/2000/svg">
<g clip-path="url(#clip0_3_1076)">
<path d="M18.9826 14.2526C18.4856 13.9958 16.0606 12.7118 15.6233 12.5192C15.1662 12.348 14.8481 12.2624 14.5102 12.776C14.1723 13.311 13.2381 14.5094 12.9598 14.8518C12.6815 15.2156 12.3834 15.2584 11.8865 14.9802C11.3895 14.7234 9.79938 14.1456 7.93093 12.348C6.46003 10.9356 5.48606 9.20213 5.1879 8.66713C4.90963 8.13212 5.14815 7.85391 5.40655 7.57571C5.6252 7.34031 5.90348 6.9551 6.142 6.6555C6.38053 6.35589 6.47991 6.12049 6.63893 5.77808C6.79794 5.41428 6.71844 5.11468 6.59917 4.85787C6.47991 4.60107 5.48606 1.99023 5.08852 0.920214C4.69098 -0.107001 4.27356 0.0214003 3.97541 0H3.02131C2.6834 0 2.1666 0.128402 1.70942 0.66341C1.27213 1.19842 0 2.48244 0 5.09327C0 7.70411 1.76906 10.2293 2.00758 10.5718C2.2461 10.9356 5.48606 16.2856 10.4156 18.5755C11.5883 19.1319 12.5027 19.4529 13.2182 19.6883C14.391 20.0949 15.4643 20.0307 16.319 19.9023C17.2731 19.7525 19.241 18.6183 19.6385 17.3771C20.0559 16.1358 20.0559 15.0872 19.9168 14.8518C19.7776 14.6164 19.4795 14.5094 18.9826 14.2526Z" fill="#242223"/>
<path d="M15.6233 12.5192C16.0606 12.7118 18.4856 13.9958 18.9826 14.2526C19.4795 14.5094 19.7776 14.6164 19.9168 14.8518C20.0559 15.0872 20.0559 16.1358 19.6385 17.3771C19.241 18.6183 17.2731 19.7525 16.319 19.9023C15.4643 20.0307 14.391 20.0949 13.2182 19.6883C12.5027 19.4529 11.5883 19.1319 10.4156 18.5755C5.48606 16.2856 2.2461 10.9356 2.00758 10.5718L2.00363 10.5662C1.75052 10.2029 0 7.69045 0 5.09327C0 2.48244 1.27213 1.19842 1.70942 0.66341C2.1666 0.128402 2.6834 0 3.02131 0H3.97541C4.27356 0.0214003 4.69098 -0.107001 5.08852 0.920214C5.48606 1.99023 6.47991 4.60107 6.59917 4.85787C6.71844 5.11468 6.79794 5.41428 6.63893 5.77808C6.47991 6.12049 6.38053 6.35589 6.142 6.6555C5.90348 6.9551 5.6252 7.34031 5.40655 7.57571C5.14815 7.85391 4.90963 8.13212 5.1879 8.66713C5.48606 9.20213 6.46003 10.9356 7.93093 12.348C9.79938 14.1456 11.3895 14.7234 11.8865 14.9802C12.3834 15.2584 12.6815 15.2156 12.9598 14.8518C13.2381 14.5094 14.1723 13.311 14.5102 12.776C14.8481 12.2624 15.1662 12.348 15.6233 12.5192Z" fill="#242223"/>
</g>
<defs>
<clipPath id="clip0_3_1076">
<rect width="20" height="20" fill="white"/>
</clipPath>
</defs>
</svg>
