<svg width="9" height="10" viewBox="0 0 9 10" fill="none" xmlns="http://www.w3.org/2000/svg">
<path fill-rule="evenodd" clip-rule="evenodd" d="M5 5.79785V9.29785C5 9.43046 4.94732 9.55764 4.85355 9.65141C4.75979 9.74517 4.63261 9.79785 4.5 9.79785C4.36739 9.79785 4.24021 9.74517 4.14645 9.65141C4.05268 9.55764 4 9.43046 4 9.29785V5.79785H0.5C0.367392 5.79785 0.240215 5.74517 0.146447 5.6514C0.0526784 5.55764 0 5.43046 0 5.29785C0 5.16524 0.0526784 5.03807 0.146447 4.9443C0.240215 4.85053 0.367392 4.79785 0.5 4.79785H4V1.29785C4 1.16524 4.05268 1.03807 4.14645 0.944298C4.24021 0.85053 4.36739 0.797852 4.5 0.797852C4.63261 0.797852 4.75979 0.85053 4.85355 0.944298C4.94732 1.03807 5 1.16524 5 1.29785V4.79785H8.5C8.63261 4.79785 8.75979 4.85053 8.85355 4.9443C8.94732 5.03807 9 5.16524 9 5.29785C9 5.43046 8.94732 5.55764 8.85355 5.6514C8.75979 5.74517 8.63261 5.79785 8.5 5.79785H5Z" fill="black"/>
</svg>
