<svg width="110" height="21" viewBox="0 0 110 21" fill="none" xmlns="http://www.w3.org/2000/svg">
<path d="M105.253 15.5561L101 19.6807H0.5V8.92359L9.00052 0.680664H109.5V11.4378L105.253 15.5561Z" stroke="#777777" stroke-miterlimit="10"/>
<path d="M22.2998 5.69766H23.3198V14.0977H22.2998V5.69766ZM22.8638 6.65766V5.69766H24.5798C25.1238 5.69766 25.6078 5.80166 26.0318 6.00966C26.4638 6.20966 26.8038 6.49766 27.0518 6.87366C27.3078 7.24966 27.4358 7.69766 27.4358 8.21766C27.4358 8.72966 27.3078 9.17766 27.0518 9.56166C26.8038 9.93766 26.4638 10.2297 26.0318 10.4377C25.6078 10.6377 25.1238 10.7377 24.5798 10.7377H22.8638V9.77766H24.5798C25.1238 9.77766 25.5638 9.64566 25.8998 9.38166C26.2438 9.11766 26.4158 8.72966 26.4158 8.21766C26.4158 7.69766 26.2438 7.30966 25.8998 7.05366C25.5638 6.78966 25.1238 6.65766 24.5798 6.65766H22.8638ZM29.5397 8.57766V14.0977H28.5797V8.57766H29.5397ZM31.2077 9.63366C31.0797 9.53766 30.9637 9.46966 30.8597 9.42966C30.7557 9.38166 30.6237 9.35766 30.4637 9.35766C30.2237 9.35766 30.0357 9.41766 29.8997 9.53766C29.7637 9.65766 29.6677 9.82166 29.6117 10.0297C29.5637 10.2377 29.5397 10.4737 29.5397 10.7377H29.1077C29.1077 10.2977 29.1837 9.90966 29.3357 9.57366C29.4957 9.22966 29.6997 8.95766 29.9477 8.75766C30.1957 8.55766 30.4477 8.45766 30.7037 8.45766C30.9037 8.45766 31.0877 8.48566 31.2557 8.54166C31.4317 8.58966 31.5917 8.68966 31.7357 8.84166L31.2077 9.63366ZM32.0372 11.3377C32.0372 10.7777 32.1612 10.2817 32.4092 9.84966C32.6652 9.41766 33.0092 9.07766 33.4412 8.82966C33.8732 8.58166 34.3572 8.45766 34.8932 8.45766C35.4372 8.45766 35.9212 8.58166 36.3452 8.82966C36.7772 9.07766 37.1172 9.41766 37.3652 9.84966C37.6212 10.2817 37.7492 10.7777 37.7492 11.3377C37.7492 11.8897 37.6212 12.3857 37.3652 12.8257C37.1172 13.2577 36.7772 13.5977 36.3452 13.8457C35.9212 14.0937 35.4372 14.2177 34.8932 14.2177C34.3572 14.2177 33.8732 14.0937 33.4412 13.8457C33.0092 13.5977 32.6652 13.2577 32.4092 12.8257C32.1612 12.3857 32.0372 11.8897 32.0372 11.3377ZM33.0092 11.3377C33.0092 11.7217 33.0892 12.0617 33.2492 12.3577C33.4172 12.6537 33.6412 12.8897 33.9212 13.0657C34.2092 13.2337 34.5332 13.3177 34.8932 13.3177C35.2532 13.3177 35.5732 13.2337 35.8532 13.0657C36.1412 12.8897 36.3652 12.6537 36.5252 12.3577C36.6932 12.0617 36.7772 11.7217 36.7772 11.3377C36.7772 10.9537 36.6932 10.6137 36.5252 10.3177C36.3652 10.0137 36.1412 9.77766 35.8532 9.60966C35.5732 9.44166 35.2532 9.35766 34.8932 9.35766C34.5332 9.35766 34.2092 9.44166 33.9212 9.60966C33.6412 9.77766 33.4172 10.0137 33.2492 10.3177C33.0892 10.6137 33.0092 10.9537 33.0092 11.3377ZM38.648 8.57766H41.408V9.47766H38.648V8.57766ZM41.312 5.88966C41.232 5.75366 41.136 5.66966 41.024 5.63766C40.92 5.59766 40.82 5.57766 40.724 5.57766C40.604 5.57766 40.5 5.61366 40.412 5.68566C40.332 5.74966 40.268 5.86166 40.22 6.02166C40.172 6.18166 40.148 6.39366 40.148 6.65766V14.0977H39.188V6.53766C39.188 6.09766 39.252 5.73766 39.38 5.45766C39.508 5.17766 39.688 4.96966 39.92 4.83366C40.16 4.68966 40.448 4.61766 40.784 4.61766C40.96 4.61766 41.116 4.64166 41.252 4.68966C41.388 4.73766 41.504 4.79766 41.6 4.86966C41.704 4.94166 41.784 5.01766 41.84 5.09766L41.312 5.88966ZM42.5016 6.29766C42.5016 6.11366 42.5656 5.95766 42.6936 5.82966C42.8296 5.70166 42.9856 5.63766 43.1616 5.63766C43.3456 5.63766 43.5016 5.70166 43.6296 5.82966C43.7576 5.95766 43.8216 6.11366 43.8216 6.29766C43.8216 6.47366 43.7576 6.62966 43.6296 6.76566C43.5016 6.89366 43.3456 6.95766 43.1616 6.95766C42.9856 6.95766 42.8296 6.89366 42.6936 6.76566C42.5656 6.62966 42.5016 6.47366 42.5016 6.29766ZM42.6816 8.57766H43.6416V14.0977H42.6816V8.57766ZM45.6188 4.73766H46.5788V14.0977H45.6188V4.73766ZM50.5204 14.2177C50.0084 14.2177 49.5524 14.0977 49.1524 13.8577C48.7604 13.6097 48.4524 13.2697 48.2284 12.8377C48.0124 12.4057 47.9044 11.9057 47.9044 11.3377C47.9044 10.7617 48.0164 10.2577 48.2404 9.82566C48.4724 9.39366 48.7924 9.05766 49.2004 8.81766C49.6164 8.57766 50.0964 8.45766 50.6404 8.45766C51.1844 8.45766 51.6484 8.57366 52.0324 8.80566C52.4244 9.02966 52.7244 9.35366 52.9324 9.77766C53.1404 10.2017 53.2444 10.7057 53.2444 11.2897C53.2444 11.3457 53.2404 11.4057 53.2324 11.4697C53.2324 11.5257 53.2324 11.5617 53.2324 11.5777H48.5164V10.7617H52.4764L52.0924 11.3137C52.1164 11.2737 52.1404 11.2137 52.1644 11.1337C52.1884 11.0457 52.2004 10.9737 52.2004 10.9177C52.2004 10.5897 52.1324 10.3057 51.9964 10.0657C51.8684 9.82566 51.6884 9.63766 51.4564 9.50166C51.2244 9.36566 50.9524 9.29766 50.6404 9.29766C50.2724 9.29766 49.9564 9.37766 49.6924 9.53766C49.4364 9.68966 49.2364 9.91366 49.0924 10.2097C48.9564 10.4977 48.8844 10.8537 48.8764 11.2777C48.8764 11.7097 48.9444 12.0777 49.0804 12.3817C49.2164 12.6857 49.4164 12.9177 49.6804 13.0777C49.9444 13.2377 50.2644 13.3177 50.6404 13.3177C51.0164 13.3177 51.3484 13.2377 51.6364 13.0777C51.9244 12.9097 52.1684 12.6577 52.3684 12.3217L53.1484 12.8137C52.8604 13.2777 52.4964 13.6297 52.0564 13.8697C51.6244 14.1017 51.1124 14.2177 50.5204 14.2177ZM62.2978 4.73766H63.2578V14.0977H62.2978V4.73766ZM57.6778 11.3377C57.6778 10.7377 57.8018 10.2257 58.0498 9.80166C58.2978 9.36966 58.6298 9.03766 59.0458 8.80566C59.4618 8.57366 59.9178 8.45766 60.4138 8.45766C60.8778 8.45766 61.2818 8.57366 61.6258 8.80566C61.9698 9.03766 62.2378 9.36966 62.4298 9.80166C62.6298 10.2257 62.7298 10.7377 62.7298 11.3377C62.7298 11.9297 62.6298 12.4417 62.4298 12.8737C62.2378 13.3057 61.9698 13.6377 61.6258 13.8697C61.2818 14.1017 60.8778 14.2177 60.4138 14.2177C59.9178 14.2177 59.4618 14.1017 59.0458 13.8697C58.6298 13.6377 58.2978 13.3057 58.0498 12.8737C57.8018 12.4417 57.6778 11.9297 57.6778 11.3377ZM58.6498 11.3377C58.6498 11.7617 58.7338 12.1217 58.9018 12.4177C59.0778 12.7137 59.3098 12.9377 59.5978 13.0897C59.8858 13.2417 60.1978 13.3177 60.5338 13.3177C60.8138 13.3177 61.0898 13.2417 61.3618 13.0897C61.6338 12.9377 61.8578 12.7137 62.0338 12.4177C62.2098 12.1217 62.2978 11.7617 62.2978 11.3377C62.2978 10.9137 62.2098 10.5537 62.0338 10.2577C61.8578 9.96166 61.6338 9.73766 61.3618 9.58566C61.0898 9.43366 60.8138 9.35766 60.5338 9.35766C60.1978 9.35766 59.8858 9.43366 59.5978 9.58566C59.3098 9.73766 59.0778 9.96166 58.9018 10.2577C58.7338 10.5537 58.6498 10.9137 58.6498 11.3377ZM67.1376 14.2177C66.6256 14.2177 66.1696 14.0977 65.7696 13.8577C65.3776 13.6097 65.0696 13.2697 64.8456 12.8377C64.6296 12.4057 64.5216 11.9057 64.5216 11.3377C64.5216 10.7617 64.6336 10.2577 64.8576 9.82566C65.0896 9.39366 65.4096 9.05766 65.8176 8.81766C66.2336 8.57766 66.7136 8.45766 67.2576 8.45766C67.8016 8.45766 68.2656 8.57366 68.6496 8.80566C69.0416 9.02966 69.3416 9.35366 69.5496 9.77766C69.7576 10.2017 69.8616 10.7057 69.8616 11.2897C69.8616 11.3457 69.8576 11.4057 69.8496 11.4697C69.8496 11.5257 69.8496 11.5617 69.8496 11.5777H65.1336V10.7617H69.0936L68.7096 11.3137C68.7336 11.2737 68.7576 11.2137 68.7816 11.1337C68.8056 11.0457 68.8176 10.9737 68.8176 10.9177C68.8176 10.5897 68.7496 10.3057 68.6136 10.0657C68.4856 9.82566 68.3056 9.63766 68.0736 9.50166C67.8416 9.36566 67.5696 9.29766 67.2576 9.29766C66.8896 9.29766 66.5736 9.37766 66.3096 9.53766C66.0536 9.68966 65.8536 9.91366 65.7096 10.2097C65.5736 10.4977 65.5016 10.8537 65.4936 11.2777C65.4936 11.7097 65.5616 12.0777 65.6976 12.3817C65.8336 12.6857 66.0336 12.9177 66.2976 13.0777C66.5616 13.2377 66.8816 13.3177 67.2576 13.3177C67.6336 13.3177 67.9656 13.2377 68.2536 13.0777C68.5416 12.9097 68.7856 12.6577 68.9856 12.3217L69.7656 12.8137C69.4776 13.2777 69.1136 13.6297 68.6736 13.8697C68.2416 14.1017 67.7296 14.2177 67.1376 14.2177ZM70.3373 8.57766H73.0973V9.47766H70.3373V8.57766ZM71.2373 6.65766H72.1973V14.0977H71.2373V6.65766ZM74.4922 12.3937C74.4922 12.6017 74.5402 12.7817 74.6362 12.9337C74.7402 13.0857 74.8802 13.2017 75.0562 13.2817C75.2402 13.3537 75.4482 13.3897 75.6802 13.3897C75.9762 13.3897 76.2402 13.3297 76.4722 13.2097C76.7122 13.0897 76.9002 12.9217 77.0362 12.7057C77.1802 12.4817 77.2522 12.2257 77.2522 11.9377L77.4442 12.6577C77.4442 13.0097 77.3362 13.3017 77.1202 13.5337C76.9122 13.7657 76.6522 13.9377 76.3402 14.0497C76.0362 14.1617 75.7322 14.2177 75.4282 14.2177C75.0922 14.2177 74.7762 14.1497 74.4802 14.0137C74.1922 13.8697 73.9602 13.6657 73.7842 13.4017C73.6082 13.1377 73.5202 12.8177 73.5202 12.4417C73.5202 11.9057 73.7082 11.4777 74.0842 11.1577C74.4682 10.8297 75.0002 10.6657 75.6802 10.6657C76.0802 10.6657 76.4122 10.7137 76.6762 10.8097C76.9482 10.8977 77.1642 11.0017 77.3242 11.1217C77.4842 11.2337 77.5922 11.3257 77.6482 11.3977V11.9617C77.3682 11.7697 77.0802 11.6337 76.7842 11.5537C76.4882 11.4657 76.1722 11.4217 75.8362 11.4217C75.5242 11.4217 75.2682 11.4617 75.0682 11.5417C74.8762 11.6217 74.7322 11.7337 74.6362 11.8777C74.5402 12.0217 74.4922 12.1937 74.4922 12.3937ZM74.3482 9.84966L73.8802 9.14166C74.0882 8.98966 74.3722 8.83766 74.7322 8.68566C75.1002 8.53366 75.5402 8.45766 76.0522 8.45766C76.4842 8.45766 76.8602 8.52566 77.1802 8.66166C77.5082 8.78966 77.7602 8.97766 77.9362 9.22566C78.1202 9.47366 78.2122 9.77766 78.2122 10.1377V14.0977H77.2522V10.2697C77.2522 10.0777 77.2202 9.92166 77.1562 9.80166C77.0922 9.67366 77.0002 9.57366 76.8802 9.50166C76.7682 9.42966 76.6362 9.37766 76.4842 9.34566C76.3322 9.31366 76.1722 9.29766 76.0042 9.29766C75.7322 9.29766 75.4842 9.32966 75.2602 9.39366C75.0442 9.45766 74.8602 9.53366 74.7082 9.62166C74.5562 9.70966 74.4362 9.78566 74.3482 9.84966ZM79.8375 6.29766C79.8375 6.11366 79.9015 5.95766 80.0295 5.82966C80.1655 5.70166 80.3215 5.63766 80.4975 5.63766C80.6815 5.63766 80.8375 5.70166 80.9655 5.82966C81.0935 5.95766 81.1575 6.11366 81.1575 6.29766C81.1575 6.47366 81.0935 6.62966 80.9655 6.76566C80.8375 6.89366 80.6815 6.95766 80.4975 6.95766C80.3215 6.95766 80.1655 6.89366 80.0295 6.76566C79.9015 6.62966 79.8375 6.47366 79.8375 6.29766ZM80.0175 8.57766H80.9775V14.0977H80.0175V8.57766ZM82.9547 4.73766H83.9147V14.0977H82.9547V4.73766ZM85.9483 12.4057C86.0603 12.5737 86.1883 12.7297 86.3323 12.8737C86.4763 13.0177 86.6403 13.1337 86.8243 13.2217C87.0163 13.3017 87.2243 13.3417 87.4483 13.3417C87.7203 13.3417 87.9323 13.2817 88.0843 13.1617C88.2443 13.0337 88.3243 12.8617 88.3243 12.6457C88.3243 12.4537 88.2603 12.2937 88.1323 12.1657C88.0123 12.0297 87.8563 11.9177 87.6643 11.8297C87.4723 11.7337 87.2683 11.6457 87.0523 11.5657C86.8123 11.4697 86.5683 11.3577 86.3203 11.2297C86.0803 11.0937 85.8763 10.9217 85.7083 10.7137C85.5483 10.4977 85.4683 10.2297 85.4683 9.90966C85.4683 9.58166 85.5523 9.30966 85.7203 9.09366C85.8963 8.87766 86.1203 8.71766 86.3923 8.61366C86.6723 8.50966 86.9603 8.45766 87.2563 8.45766C87.5523 8.45766 87.8283 8.50566 88.0843 8.60166C88.3483 8.69766 88.5803 8.82566 88.7803 8.98566C88.9803 9.14566 89.1363 9.32966 89.2483 9.53766L88.4803 10.0297C88.3283 9.82166 88.1363 9.64966 87.9043 9.51366C87.6803 9.37766 87.4243 9.30966 87.1363 9.30966C86.9363 9.30966 86.7643 9.35366 86.6203 9.44166C86.4763 9.52966 86.4043 9.66566 86.4043 9.84966C86.4043 9.99366 86.4603 10.1217 86.5723 10.2337C86.6843 10.3457 86.8283 10.4457 87.0043 10.5337C87.1803 10.6217 87.3643 10.7057 87.5563 10.7857C87.8763 10.9137 88.1683 11.0537 88.4323 11.2057C88.6963 11.3497 88.9043 11.5257 89.0563 11.7337C89.2163 11.9417 89.2963 12.2097 89.2963 12.5377C89.2963 13.0177 89.1203 13.4177 88.7683 13.7377C88.4243 14.0577 87.9683 14.2177 87.4003 14.2177C87.0323 14.2177 86.7003 14.1537 86.4043 14.0257C86.1083 13.8897 85.8563 13.7177 85.6483 13.5097C85.4483 13.3017 85.2963 13.0897 85.1923 12.8737L85.9483 12.4057Z" fill="#777777"/>
</svg>
