<svg width="20" height="20" viewBox="0 0 20 20" fill="none" xmlns="http://www.w3.org/2000/svg">
<g clip-path="url(#clip0_3_117)">
<path d="M10.4541 18.049C10.323 18.0553 10.1912 18.0585 10.0585 18.0585C8.94587 18.0585 7.88589 17.833 6.92178 17.4253C5.95768 17.0175 5.08943 16.4274 4.36028 15.6983C3.63113 14.9691 3.04107 14.1009 2.63327 13.1368C2.22549 12.1727 2 11.1127 2 10C2 9.42086 2.06109 8.85597 2.17721 8.31143C2.35939 7.45696 3.14223 6.86328 4.01593 6.86328H7.28378" stroke="black" stroke-width="1.5" stroke-miterlimit="10"/>
<path d="M9.4985 16.1713L13.1952 17.4251L10.2611 20.0001L9.4985 16.1713Z" fill="black"/>
<path d="M9.66302 1.95103C9.79411 1.9447 9.92602 1.94147 10.0587 1.94147C11.1713 1.94147 12.2313 2.16696 13.1954 2.57474C14.1595 2.98252 15.0277 3.57262 15.7569 4.30175C16.486 5.03092 17.0761 5.89913 17.4839 6.86323C17.8917 7.82734 18.1172 8.88734 18.1172 10C18.1172 10.5791 18.0561 11.144 17.94 11.6886C17.7578 12.543 16.9749 13.1367 16.1012 13.1367H12.8336" stroke="black" stroke-width="1.5" stroke-miterlimit="10"/>
<path d="M10.6186 3.82874L6.92188 2.57494L9.85591 0L10.6186 3.82874Z" fill="black"/>
<path d="M10.0584 14.1883C12.3716 14.1883 14.2468 12.3131 14.2468 9.99997C14.2468 7.68682 12.3716 5.81165 10.0584 5.81165C7.7453 5.81165 5.87012 7.68682 5.87012 9.99997C5.87012 12.3131 7.7453 14.1883 10.0584 14.1883Z" stroke="black" stroke-width="1.5" stroke-miterlimit="10"/>
</g>
<defs>
<clipPath id="clip0_3_117">
<rect width="20" height="20" fill="white"/>
</clipPath>
</defs>
</svg>
