<svg width="9" height="8" viewBox="0 0 9 8" fill="none" xmlns="http://www.w3.org/2000/svg">
<path d="M8.09542 3.64407L6.42485 5.10202L6.92528 7.27265C6.95176 7.38612 6.9442 7.50488 6.90356 7.61409C6.86291 7.72329 6.79097 7.81809 6.69674 7.88663C6.6025 7.95517 6.49016 7.99441 6.37374 7.99945C6.25733 8.00448 6.14201 7.97509 6.04221 7.91495L4.14902 6.76666L2.25991 7.91495C2.16011 7.97509 2.04479 8.00448 1.92838 7.99945C1.81196 7.99441 1.69962 7.95517 1.60538 7.88663C1.51115 7.81809 1.43921 7.72329 1.39856 7.61409C1.35791 7.50488 1.35036 7.38612 1.37684 7.27265L1.87653 5.10424L0.205588 3.64407C0.117211 3.56784 0.0533043 3.46722 0.0218834 3.35483C-0.00953748 3.24243 -0.00707421 3.12326 0.0289643 3.01225C0.0650028 2.90125 0.133012 2.80336 0.224464 2.73085C0.315916 2.65835 0.426739 2.61445 0.543036 2.60468L2.74552 2.41392L3.60525 0.363303C3.65015 0.255703 3.72588 0.163793 3.8229 0.0991445C3.91993 0.034496 4.03391 0 4.1505 0C4.26709 0 4.38108 0.034496 4.4781 0.0991445C4.57513 0.163793 4.65086 0.255703 4.69575 0.363303L5.55808 2.41392L7.75982 2.60468C7.87612 2.61445 7.98694 2.65835 8.0784 2.73085C8.16985 2.80336 8.23786 2.90125 8.2739 3.01225C8.30993 3.12326 8.3124 3.24243 8.28098 3.35483C8.24956 3.46722 8.18565 3.56784 8.09727 3.64407H8.09542Z" fill="url(#paint0_linear_5_1166)"/>
<defs>
<linearGradient id="paint0_linear_5_1166" x1="4.15143" y1="0" x2="4.15143" y2="8" gradientUnits="userSpaceOnUse">
<stop stop-color="#8D7048"/>
<stop offset="1" stop-color="#D9C769"/>
</linearGradient>
</defs>
</svg>
